<svg width="24" height="24" viewBox="0 0 24 24" fill="none" xmlns="http://www.w3.org/2000/svg">
<g clip-path="url(#clip0_28_8)">
<path d="M11.6191 10.8147L11.201 11.5934C11.201 11.5934 11.5713 11.8877 11.9806 12.4296C12.3889 12.9705 13.0156 13.8641 14.147 14.7285C15.2774 15.5939 16.3036 15.6496 17.016 15.6778C17.3015 15.6893 17.9477 15.6018 18.166 15.6876C18.3843 15.7733 18.7166 15.8776 18.8784 15.7158C19.0401 15.5541 19.087 15.1077 18.8209 14.7657C18.5549 14.4236 18.1085 14.946 17.0346 14.8991C16.0491 14.8558 15.106 14.6039 14.2601 13.8924C13.4151 13.18 12.769 12.3253 12.5215 11.9823C12.2749 11.6403 11.6191 10.8147 11.6191 10.8147V10.8147Z" fill="#65A21B"/>
<path d="M7.99248 5.68907C8.09324 5.38855 8.59352 4.57361 9.47298 4.5798C10.3524 4.58599 10.7962 5.24537 10.9827 5.2162C11.1683 5.18791 11.6977 4.40037 12.6134 4.40037C13.5291 4.40037 14.1646 5.30812 14.1576 5.70233C14.1505 6.09655 10.8032 6.66842 10.8032 6.66842L7.99248 5.68907Z" fill="#65A21B"/>
<path d="M5.03058 11.14C5.03058 11.14 4.44457 10.4249 4.43662 9.74521C4.42954 9.1371 4.79459 8.52811 5.43717 8.27266C6.26714 7.94298 6.89735 10.9897 6.89735 10.9897L5.8031 14.2159C5.8031 14.2159 4.60544 14.0347 4.38005 12.8211C4.18648 11.7843 5.03058 11.14 5.03058 11.14V11.14Z" fill="#65A21B"/>
<path d="M7.5576 15.555C7.47894 15.8917 7.66721 16.9462 8.73582 17.1928C9.66567 17.4067 10.1589 16.8852 10.1589 16.8852C10.1589 16.8852 10.7882 17.7726 11.7039 17.7143C12.5922 17.6586 13.2224 16.7544 13.3081 16.3964C13.4107 15.9704 10.5168 14.5244 10.5168 14.5244L7.5576 15.555Z" fill="#65A21B"/>
<path d="M15.2527 10.2464C15.2527 10.2464 14.8514 13.2516 15.4613 13.3824C16.149 13.5309 17.3148 12.6832 17.3988 11.848C17.4986 10.8465 16.8481 10.5814 16.834 10.3816C16.8198 10.1819 17.2273 9.74433 16.9984 9.11589C16.7694 8.48568 16.2126 8.01545 15.654 7.95888C15.0962 7.90143 15.2527 10.2464 15.2527 10.2464Z" fill="#65A21B"/>
<path d="M10.1041 10.249C10.3763 9.93436 9.4447 9.30858 8.84455 8.66069C7.84045 7.57705 7.78389 6.94419 7.80068 6.43065C7.81659 5.94275 8.1012 5.43009 8.17456 5.32314C8.29035 5.15609 8.90907 5.04119 9.57729 5.31165C10.1509 5.54412 10.645 6.06472 10.9128 6.04439C11.1807 6.02406 11.6367 5.14548 12.6231 5.10483C13.6096 5.06417 14.0356 5.49727 14.1311 5.59273C14.2265 5.68819 14.3025 6.39353 13.9286 7.08914C13.4664 7.95093 12.2201 9.02397 11.8577 9.37222C11.4953 9.72047 11.262 10.0228 11.4264 10.173C11.5908 10.3233 11.9814 9.85128 12.3235 9.49507C12.6656 9.13887 13.5892 8.4079 14.5147 8.057C15.4083 7.71847 15.9492 7.97126 16.2745 8.18693C16.5582 8.37519 16.7332 8.83658 16.6377 9.23433C16.5414 9.63119 15.9907 10.1553 16.0111 10.4161C16.0385 10.7723 16.8808 11.1356 16.689 12.0663C16.4972 12.997 15.8042 13.3771 15.5921 13.3948C14.7957 13.4593 14.2274 13.0978 13.4531 12.4879C12.6797 11.8789 11.8851 11.1939 11.5837 11.4953C11.2823 11.7967 11.9947 12.8238 12.6108 13.6997C13.2268 14.5756 13.7501 15.7848 13.1756 16.6881C12.7593 17.3431 11.696 17.2768 11.2761 16.9241C10.8368 16.5555 10.4948 16.0915 10.2455 16.0438C9.94145 15.9854 9.50569 16.7871 8.5785 16.5953C7.76709 16.4274 7.5691 15.9554 7.54789 15.798C7.52844 15.6478 7.42857 14.9115 8.09855 13.9799C8.76853 13.0483 10.5186 11.7578 10.2552 11.4538C9.99183 11.1497 8.78709 12.4499 8.37609 12.8609C7.96508 13.2719 7.14749 14.1549 6.38293 14.2371C5.80134 14.299 5.44425 14.1328 5.3426 14.0701C5.1835 13.9728 4.69913 13.3152 4.88033 12.5666C5.10484 11.635 5.80929 11.4166 5.85083 11.1842C5.89238 10.9517 5.18262 10.7352 4.99612 9.73903C4.85204 8.96563 5.30636 8.33277 5.40005 8.29388C5.78985 8.12859 6.3573 8.00838 7.1033 8.26117C7.84929 8.51396 8.49983 9.0001 8.91791 9.41818C9.33599 9.83625 9.88134 10.5054 10.1041 10.249V10.249Z" fill="#8BC02B"/>
<path d="M10.7679 7.43739C10.7679 7.43739 10.6238 6.88143 10.2092 6.96893C9.7293 7.07058 9.8168 7.59295 9.8168 7.59295C9.8168 7.59295 9.53485 7.37817 9.28382 7.62389C9.10439 7.79978 9.17687 8.07025 9.46502 8.37431C9.75228 8.67925 9.93436 8.72521 10.1085 8.61119C10.3516 8.45297 10.2499 8.2046 10.2499 8.2046C10.2499 8.2046 10.3851 8.34514 10.6194 8.3036C10.8536 8.26205 10.8783 7.99866 10.8783 7.99866C10.8783 7.99866 10.9411 8.3089 11.1638 8.31774C11.345 8.32393 11.4343 8.10914 11.4343 8.10914C11.4343 8.10914 11.4087 8.59793 11.6791 8.63682C11.9505 8.6766 12.1989 8.43353 12.32 8.22228C12.4411 8.01103 12.487 7.63273 12.1812 7.40645C11.8754 7.18018 11.5077 7.65925 11.5077 7.65925C11.5077 7.65925 11.4591 7.15278 11.1691 7.12273C10.828 7.0856 10.7679 7.43739 10.7679 7.43739Z" fill="#BDCE46"/>
<path d="M13.0677 9.50214C13.1482 9.67273 13.4611 9.6692 13.4611 9.6692C13.4611 9.6692 13.3417 9.80266 13.3886 9.93259C13.4354 10.0625 13.6113 10.1341 13.6113 10.1341C13.6113 10.1341 13.2542 10.2243 13.2039 10.5274C13.1597 10.7979 13.484 10.9862 13.484 10.9862C13.484 10.9862 13.1349 10.9588 13.0359 11.277C12.967 11.4962 13.2242 11.7799 13.4779 11.9576C13.7315 12.1352 14.0939 12.2307 14.2822 11.954C14.4705 11.6774 13.9808 11.2354 13.9808 11.2354C13.9808 11.2354 14.6366 11.2407 14.6649 10.8182C14.6888 10.4656 14.3052 10.3701 14.3052 10.3701C14.3052 10.3701 14.4554 10.3082 14.459 10.1474C14.4625 9.98651 14.261 9.93524 14.261 9.93524C14.261 9.93524 14.6782 9.77084 14.5385 9.50037C14.3989 9.22991 14.0807 9.34304 14.0807 9.34304C14.0807 9.34304 14.238 9.2193 14.0294 9.04606C13.8005 8.85602 12.845 9.03369 13.0677 9.50214V9.50214Z" fill="#BDCE46"/>
<path d="M10.5381 13.5397C10.5381 13.5397 10.5407 13.3196 10.2605 13.1296C9.91669 12.8971 9.44027 13.218 9.29708 13.3842C9.15389 13.5503 8.99745 13.7722 9.22019 13.9826C9.38547 14.139 9.56402 14.0382 9.56402 14.0382C9.56402 14.0382 9.50038 14.284 9.73637 14.4316C10.0908 14.6534 10.4682 14.0992 10.4682 14.0992C10.4682 14.0992 10.4293 14.6366 10.8395 14.7144C11.2496 14.7922 11.3769 14.2884 11.3769 14.2884C11.3769 14.2884 11.5448 14.6437 11.8038 14.5261C12.0477 14.4148 12.0698 14.1434 11.9593 13.8173C11.8533 13.5044 11.5333 13.1561 11.1948 13.1641C10.7042 13.1738 10.5381 13.5397 10.5381 13.5397V13.5397Z" fill="#BDCE46"/>
<path d="M7.04319 10.2747C6.97955 10.6706 7.40823 10.8837 7.40823 10.8837C7.40823 10.8837 7.15367 11.0498 7.24736 11.2549C7.34106 11.4599 7.5523 11.3937 7.5523 11.3937C7.5523 11.3937 7.29774 11.5492 7.41972 11.7596C7.5417 11.9699 7.76267 11.8922 7.76267 11.8922C7.76267 11.8922 7.57617 12.1352 7.78476 12.3792C7.91204 12.5294 8.23908 12.6125 8.57672 12.2855C8.91437 11.9585 9.04165 11.7764 8.89227 11.604C8.74289 11.4317 8.48833 11.5324 8.48833 11.5324C8.48833 11.5324 8.60589 11.3601 8.46005 11.2054C8.2656 11.0003 8.01104 11.1117 8.01104 11.1117C8.01104 11.1117 8.34868 10.9968 8.43177 10.7246C8.54844 10.3427 8.16041 10.188 8.16041 10.188C8.16041 10.188 8.47596 10.3374 8.62622 10.1217C8.74113 9.95558 8.6987 9.67274 8.38227 9.40227C8.06584 9.1318 7.84929 9.17865 7.70698 9.31388C7.51872 9.49154 7.70698 9.81239 7.70698 9.81239C7.70698 9.81239 7.13246 9.72047 7.04319 10.2747V10.2747Z" fill="#BDCE46"/>
</g>
<defs>
<clipPath id="clip0_28_8">
<rect width="16" height="16" fill="white" transform="translate(0.686295 12) rotate(-45)"/>
</clipPath>
</defs>
</svg>
