<svg width="16" height="16" viewBox="0 0 16 16" fill="none" xmlns="http://www.w3.org/2000/svg">
<path d="M8.34093 15.6388C3.06787 15.6388 1.659 10.1419 2.29584 6.54041C2.32356 6.38366 2.52903 6.3385 2.61856 6.47013C2.89581 6.87763 3.14253 7.46622 3.55131 7.41513C4.16571 7.33832 4.59137 1.91682 8.23277 0.391347C8.34834 0.34294 8.46924 0.434784 8.45655 0.559409C8.27649 2.32607 9.33721 4.85528 11.2164 4.85528C12.2937 4.85528 13.0307 3.99553 13.3991 3.1321C13.5109 2.86982 13.8941 2.90288 13.9583 3.18072C14.6155 6.02703 16.3724 15.6388 8.34093 15.6388V15.6388Z" fill="#FF6A1F"/>
<path d="M6.49237 10.3383C6.61637 10.2342 6.80462 10.3057 6.83278 10.4652C6.89865 10.8384 7.11528 11.4798 7.82584 11.4798C8.68059 11.4798 9.26065 9.12778 9.41278 8.43606C9.43781 8.32225 9.54871 8.24497 9.6629 8.26819C11.799 8.7025 12.8376 15.6388 8.14093 15.6388C4.72181 15.6388 5.4964 11.175 6.49237 10.3383Z" fill="#FF9B36"/>
</svg>
