<svg width="16" height="16" viewBox="0 0 16 16" fill="none" xmlns="http://www.w3.org/2000/svg">
<path d="M5.12125 10.115C4.33375 9.94501 3.42875 10.1588 2.79875 10.7375C2.14375 11.3363 2.00375 12.2263 1.83625 13.0538C1.74375 13.5038 1.70875 14.1475 1.3175 14.455C1.14125 14.5938 0.978747 14.6013 0.773747 14.5913C0.693747 14.5875 0.321247 14.46 0.427497 14.705C0.628747 15.1725 1.63125 15.4563 2.065 15.5538C3.23125 15.8138 4.48125 15.4963 5.41 14.7525C5.50625 14.6738 5.6 14.5913 5.68875 14.505C6.40625 13.8088 6.94375 12.74 6.73875 11.7275C6.55375 10.8125 5.8925 10.2813 5.12125 10.115Z" fill="#855C52"/>
<path d="M3.5 12.23C3.51125 12.2713 3.5175 12.3213 3.515 12.385C3.49875 12.7663 3.76875 12.8988 4.1075 12.9588C4.45125 13.0188 4.8925 13.0188 4.81125 13.4788C4.775 13.6763 4.655 13.8063 4.8325 13.9613C5.09875 14.195 5.67625 14.2525 5.99875 14.1138C6.1975 14.0275 6.4675 13.9663 6.29625 14.28C6.1975 14.4613 6.0375 14.6163 5.91125 14.7813C5.7725 14.9613 5.61375 15.0975 5.43 15.23C5.295 15.3288 5.1925 15.4538 5.0425 15.5325C4.66 15.7288 4.2075 15.7313 3.79125 15.7913C3.23375 15.8713 2.67625 16.09 2.14 15.8325C1.5725 15.56 0.90875 15.5138 0.355 15.2163C0.0825003 15.07 -0.0674996 14.8613 0.0312504 14.5575C0.11625 14.2963 0.31875 14.2288 0.5725 14.2175C0.85875 14.205 1.0975 14.17 1.27375 13.9175C1.425 13.7025 1.40875 13.3488 1.43625 13.1C1.4725 12.76 1.49875 12.3963 1.6425 12.0813C1.7625 11.8213 1.89125 11.5625 2.05375 11.325C2.13 11.2138 2.21375 11.0763 2.32 10.9913C2.485 10.8588 2.665 10.8163 2.86375 10.7663C2.89625 10.9263 2.73 11.14 2.6825 11.2875C2.60125 11.54 2.56 11.8188 2.805 11.97C3.04125 12.115 3.42125 11.9475 3.5 12.23Z" fill="#F14E1F"/>
<path d="M8.00875 7.01625C9.0775 6.15 10.71 4.255 11.7038 3.3C12.3138 2.715 12.8913 2.085 13.47 1.475C13.8363 1.08875 14.3888 0.393753 15.0013 0.513753C15.1075 0.535003 15.1963 0.596253 15.2713 0.672503C15.4375 0.841253 15.3788 1.16375 15.2813 1.355C14.8913 2.11875 14.2875 2.81 13.765 3.4875C13.565 3.7475 13.365 4.005 13.1563 4.25875C12.5488 5.00125 11.16 6.5175 10.585 7.28625C10.3613 7.58625 10.1463 7.89125 9.94376 8.205C9.81751 8.39875 9.64875 8.55375 9.555 8.765C9.46 8.98 9.06 8.25625 9.03875 8.20125C8.9575 7.9875 8.86875 7.8675 8.67375 7.76125C8.53375 7.68625 7.755 7.4325 7.86375 7.19C7.89125 7.125 7.945 7.0675 8.00875 7.01625Z" fill="#83A1FC"/>
<path d="M9.46001 8.52125C9.30876 8.2 9.10376 7.95125 8.87501 7.75C8.81626 7.6975 8.7575 7.6475 8.70501 7.595C8.35001 7.24625 8.01376 7.1175 7.71126 7.2025C7.2575 7.33 7.12251 7.52875 6.80876 7.9125C6.72376 8.0175 6.64501 8.11375 6.57376 8.19125C6.00126 8.8125 5.98126 8.76625 5.12251 9.14875L5.05001 9.17875C4.85626 9.26 4.59126 9.37125 4.52376 9.645C4.49501 9.7625 4.49751 9.945 4.67251 10.1538C4.86376 10.3825 5.09001 10.5413 5.30751 10.695C5.38626 10.75 5.46376 10.805 5.54001 10.8638C5.78876 11.055 6.00501 11.29 6.23376 11.5375L6.36876 11.6838C6.40501 11.7213 6.43751 11.7688 6.47501 11.8163C6.57751 11.9525 6.70376 12.1225 6.89126 12.2125C6.95626 12.2438 7.01251 12.2625 7.06751 12.2725C7.28001 12.31 7.41126 12.1975 7.48001 12.1363L7.50876 12.1125C7.78501 11.8838 8.00126 11.4388 8.12375 11.125C8.20126 10.925 8.195 10.875 8.24875 10.75C8.3925 10.4213 8.62251 10.1738 8.74875 10C8.99875 9.65625 9.10001 9.5275 9.19626 9.44C9.48126 9.1775 9.62501 8.875 9.46001 8.52125Z" fill="#C7E4EA"/>
<path d="M7.99875 12.27C7.88625 12.25 7.785 12.1763 7.73375 12.0638C7.6725 11.925 7.64375 11.795 7.6175 11.6775C7.59375 11.5725 7.575 11.4813 7.53375 11.405C7.16125 10.7 6.6525 10.1675 5.78 9.56751C5.51875 9.38751 5.2725 9.27751 5.0525 9.23876C5.00608 9.23072 4.96171 9.2136 4.92193 9.18838C4.88214 9.16315 4.84773 9.13032 4.82067 9.09176C4.79361 9.0532 4.77443 9.00967 4.76423 8.96368C4.75404 8.91769 4.75302 8.87014 4.76125 8.82376C4.795 8.62876 4.98125 8.49876 5.1775 8.53251C5.49875 8.58876 5.83875 8.73876 6.18625 8.97626C6.86625 9.44376 7.635 10.0588 8.17 11.0713C8.255 11.2338 8.29 11.3888 8.31875 11.525C8.34 11.6188 8.3575 11.7 8.39 11.7713C8.47125 11.9513 8.39 12.1638 8.21 12.245C8.13875 12.275 8.0675 12.2825 7.99875 12.27Z" fill="#78A3AD"/>
</svg>
