<svg width="500" height="500" viewBox="0 0 500 500" fill="none" xmlns="http://www.w3.org/2000/svg">
<g clip-path="url(#clip0_30_19)">
<path d="M203.612 170.383C189.756 147.73 185.186 127.315 196.788 110.434C216.488 81.7686 264.513 95.3125 306.91 107.334C333.166 114.593 369.003 124.684 375.132 115.766C379.619 109.237 370.006 88.7961 344.87 71.5212C318.909 53.6799 301.107 55.7481 300.161 55.801C288.462 57.3745 274.935 49.2501 270.003 37.8884C267.674 32.4261 267.627 26.8436 269.873 22.3382C272.118 17.8328 276.478 14.7631 282.016 13.7875C285.814 13.1155 320.607 7.95261 366.759 39.6705C412.911 71.3883 434.726 117.331 416.339 144.086C395.872 173.866 346.804 160.074 303.364 147.805C279.509 141.024 243.467 130.791 237.994 138.754C234.602 143.691 247.163 160.785 252.868 175.492L203.612 170.383Z" fill="url(#paint0_linear_30_19)"/>
<path d="M252.868 175.492C265.192 200.374 273.947 233.437 259.445 254.538C234.82 290.37 184.524 280.13 140.129 271.015C112.614 265.588 75.0814 257.965 67.4201 269.113C61.8109 277.274 69.8098 300.064 94.946 317.339C120.906 335.18 140.377 330.683 141.406 330.511C154.226 327.305 167.891 335.23 171.893 347.946C173.771 354.064 173.17 360.589 170.218 366.121C167.267 371.654 162.199 375.753 156.103 377.541C151.922 378.77 113.736 388.87 67.5841 357.152C21.4324 325.434 3.22924 274.236 26.2132 240.793C51.7965 203.568 103.19 213.975 148.682 223.258C173.659 228.407 211.398 236.172 218.238 226.218C222.479 220.047 213.241 184.621 203.612 170.383L252.868 175.492Z" fill="url(#paint1_linear_30_19)"/>
</g>
<defs>
<linearGradient id="paint0_linear_30_19" x1="415.594" y1="-194.869" x2="71.8093" y2="455.175" gradientUnits="userSpaceOnUse">
<stop offset="0.00945118" stop-color="#82A1FB"/>
<stop offset="1" stop-color="#82A1FB" stop-opacity="0"/>
</linearGradient>
<linearGradient id="paint1_linear_30_19" x1="415.594" y1="-194.869" x2="71.8093" y2="455.175" gradientUnits="userSpaceOnUse">
<stop offset="0.00945118" stop-color="#82A1FB"/>
<stop offset="1" stop-color="#82A1FB" stop-opacity="0"/>
</linearGradient>
<clipPath id="clip0_30_19">
<rect width="500" height="500" fill="white"/>
</clipPath>
</defs>
</svg>
